<svg width="26" height="26" viewBox="0 0 26 26" fill="none" xmlns="http://www.w3.org/2000/svg">
<path fill-rule="evenodd" clip-rule="evenodd" d="M11.9167 4.33332C7.7285 4.33332 4.33332 7.7285 4.33332 11.9167C4.33332 16.1048 7.7285 19.5 11.9167 19.5C16.1048 19.5 19.5 16.1048 19.5 11.9167C19.5 7.7285 16.1048 4.33332 11.9167 4.33332ZM2.16666 11.9167C2.16666 6.53188 6.53188 2.16666 11.9167 2.16666C17.3014 2.16666 21.6667 6.53188 21.6667 11.9167C21.6667 17.3014 17.3014 21.6667 11.9167 21.6667C6.53188 21.6667 2.16666 17.3014 2.16666 11.9167Z" fill="white"/>
<path fill-rule="evenodd" clip-rule="evenodd" d="M17.2715 17.2715C17.6945 16.8484 18.3805 16.8484 18.8035 17.2715L23.516 21.984C23.9391 22.407 23.9391 23.093 23.516 23.516C23.093 23.9391 22.407 23.9391 21.984 23.516L17.2715 18.8035C16.8484 18.3805 16.8484 17.6945 17.2715 17.2715Z" fill="white"/>
</svg>
