<svg width="18" height="18" viewBox="0 0 18 18" fill="none" xmlns="http://www.w3.org/2000/svg">
<path d="M7.24888 2.04881C7.8358 1.10484 9.20967 1.10484 9.79659 2.04881L11.0561 4.07456C11.2626 4.40669 11.5907 4.64504 11.9703 4.7388L14.2862 5.31068C15.3653 5.57717 15.7899 6.8838 15.0734 7.73369L13.5361 9.55755C13.284 9.85658 13.1587 10.2422 13.1868 10.6323L13.3586 13.0115C13.4386 14.1202 12.3271 14.9277 11.2974 14.509L9.08777 13.6105C8.72548 13.4631 8.31999 13.4631 7.95771 13.6105L5.74803 14.509C4.71835 14.9277 3.60686 14.1202 3.68689 13.0115L3.85863 10.6323C3.88678 10.2422 3.76148 9.85658 3.50942 9.55755L1.97203 7.73369C1.25562 6.8838 1.68017 5.57716 2.75931 5.31068L5.07513 4.7388C5.45481 4.64504 5.78287 4.40669 5.98937 4.07456L7.24888 2.04881Z" fill="#F6C002"/>
</svg>
